<svg xmlns="http://www.w3.org/2000/svg" width="337" height="23" viewBox="0 0 337 23"><defs><filter id="a" width="200%" height="200%" x="-50%" y="-50%"><feMorphology in="SourceGraphic" operator="dilate" result="SvgjsFeMorphology1010Out"/><feOffset dy="1" in="SvgjsFeMorphology1010Out" result="SvgjsFeOffset1011Out"/><feGaussianBlur in="SvgjsFeOffset1011Out" result="SvgjsFeGaussianBlur1012Out"/><feComposite in="SvgjsFeGaussianBlur1012Out" in2="SourceAlpha" operator="out" result="SvgjsFeComposite1013Out"/></filter><linearGradient id="b" x1="189" x2="189" y1="233" y2="211" gradientUnits="userSpaceOnUse"><stop offset="0" stop-opacity="0"/><stop offset="1" stop-opacity=".05"/></linearGradient><filter id="c" width="200%" height="200%" x="-50%" y="-50%"><feGaussianBlur in="SourceGraphic" result="SvgjsFeGaussianBlur1025Out"/></filter><mask id="d"><path fill="#fff" d="M32 211a11 11 0 0 1 10.59 8h59.82a11 11 0 0 1 21.18 0h55.82a11 11 0 0 1 21.18 0h56.82a11 11 0 0 1 21.18 0h56.82a11 11 0 1 1 .34 7h-57.5a11 11 0 0 1-20.5 0h-57.5a11 11 0 0 1-20.5 0h-56.5a11 11 0 0 1-20.5 0h-60.5A11 11 0 1 1 32 211z"/></mask><filter id="e" width="200%" height="200%" x="-50%" y="-50%"><feGaussianBlur in="SourceGraphic" result="SvgjsFeGaussianBlur1032Out" stdDeviation="1"/></filter><mask id="f"><path fill="#fff" d="M32 211a11 11 0 0 1 10.59 8h59.82a11 11 0 0 1 21.18 0h55.82a11 11 0 0 1 21.18 0h56.82a11 11 0 0 1 21.18 0h56.82a11 11 0 1 1 .34 7h-57.5a11 11 0 0 1-20.5 0h-57.5a11 11 0 0 1-20.5 0h-56.5a11 11 0 0 1-20.5 0h-60.5A11 11 0 1 1 32 211z"/></mask></defs><path fill="#fff" fill-opacity=".75" d="M32 211a11 11 0 0 1 10.59 8h59.82a11 11 0 0 1 21.18 0h55.82a11 11 0 0 1 21.18 0h56.82a11 11 0 0 1 21.18 0h56.82a11 11 0 1 1 .34 7h-57.5a11 11 0 0 1-20.5 0h-57.5a11 11 0 0 1-20.5 0h-56.5a11 11 0 0 1-20.5 0h-60.5A11 11 0 1 1 32 211z" filter="url(#a)" transform="translate(-20.5 -211)"/><path fill="#e6e6e6" d="M11.5 0a11 11 0 0 1 10.59 8H81.9a11 11 0 0 1 21.18 0h55.82a11 11 0 0 1 21.18 0h56.82a11 11 0 0 1 21.18 0h56.82a11 11 0 1 1 .34 7h-57.5a11 11 0 0 1-20.5 0h-57.5a11 11 0 0 1-20.5 0h-56.5a11 11 0 0 1-20.5 0h-60.5A11 11 0 1 1 11.5 0z"/><path fill="#e6e6e6" d="M11.5 0a11 11 0 0 1 10.59 8H81.9a11 11 0 0 1 21.18 0h55.82a11 11 0 0 1 21.18 0h56.82a11 11 0 0 1 21.18 0h56.82a11 11 0 1 1 .34 7h-57.5a11 11 0 0 1-20.5 0h-57.5a11 11 0 0 1-20.5 0h-56.5a11 11 0 0 1-20.5 0h-60.5A11 11 0 1 1 11.5 0z"/><path fill="#e6e6e6" d="M11.5 0a11 11 0 0 1 10.59 8H81.9a11 11 0 0 1 21.18 0h55.82a11 11 0 0 1 21.18 0h56.82a11 11 0 0 1 21.18 0h56.82a11 11 0 1 1 .34 7h-57.5a11 11 0 0 1-20.5 0h-57.5a11 11 0 0 1-20.5 0h-56.5a11 11 0 0 1-20.5 0h-60.5A11 11 0 1 1 11.5 0z"/><path fill="#e6e6e6" d="M11.5 0a11 11 0 0 1 10.59 8H81.9a11 11 0 0 1 21.18 0h55.82a11 11 0 0 1 21.18 0h56.82a11 11 0 0 1 21.18 0h56.82a11 11 0 1 1 .34 7h-57.5a11 11 0 0 1-20.5 0h-57.5a11 11 0 0 1-20.5 0h-56.5a11 11 0 0 1-20.5 0h-60.5A11 11 0 1 1 11.5 0z"/><path fill="url(#b)" d="M32 211a11 11 0 0 1 10.59 8h59.82a11 11 0 0 1 21.18 0h55.82a11 11 0 0 1 21.18 0h56.82a11 11 0 0 1 21.18 0h56.82a11 11 0 1 1 .34 7h-57.5a11 11 0 0 1-20.5 0h-57.5a11 11 0 0 1-20.5 0h-56.5a11 11 0 0 1-20.5 0h-60.5A11 11 0 1 1 32 211z" transform="translate(-20.5 -211)"/><path fill-opacity=".05" d="M21 233v-22h336v22zm0-11a11 11 0 0 0 21.25 4h60.5a11 11 0 0 0 20.5 0h56.5a11 11 0 0 0 20.5 0h57.5a11 11 0 0 0 20.5 0h57.5a11 11 0 1 0-.34-7H278.6a11 11 0 0 0-21.18 0H200.6a11 11 0 0 0-21.18 0H123.6a11 11 0 0 0-21.18 0H42.6A11 11 0 0 0 21 222z" filter="url(#c)" mask="url(&quot;#d&quot;)" transform="translate(-20.5 -211)"/><path fill-opacity=".05" d="M21 233v-22h336v22zm0-11a11 11 0 0 0 21.25 4h60.5a11 11 0 0 0 20.5 0h56.5a11 11 0 0 0 20.5 0h57.5a11 11 0 0 0 20.5 0h57.5a11 11 0 1 0-.34-7H278.6a11 11 0 0 0-21.18 0H200.6a11 11 0 0 0-21.18 0H123.6a11 11 0 0 0-21.18 0H42.6A11 11 0 0 0 21 222z" filter="url(#c)" mask="url(&quot;#d&quot;)" transform="translate(-20.5 -211)"/><path fill-opacity=".1" d="M19 236v-28h340v28zm2-13a11 11 0 0 0 21.25 4h60.5a11 11 0 0 0 20.5 0h56.5a11 11 0 0 0 20.5 0h57.5a11 11 0 0 0 20.5 0h57.5a11 11 0 1 0-.34-7H278.6a11 11 0 0 0-21.18 0H200.6a11 11 0 0 0-21.18 0H123.6a11 11 0 0 0-21.18 0H42.6A11 11 0 0 0 21 223z" filter="url(#e)" mask="url(&quot;#f&quot;)" transform="translate(-20.5 -211)"/></svg>